<svg width="11" height="12" viewBox="0 0 11 12" fill="none" xmlns="http://www.w3.org/2000/svg">
<path d="M7.27002 0.0751953C7.75106 0.0751953 8.1736 0.0755938 8.51318 0.121094L8.78564 0.170898C9.05505 0.237001 9.31347 0.355517 9.53369 0.576172C9.82785 0.870356 9.9397 1.23142 9.98877 1.59668C10.0342 1.93616 10.0347 2.35802 10.0347 2.83887V3.39258C10.0347 3.55688 9.96913 3.71481 9.85303 3.83105C9.73679 3.94729 9.57892 4.01266 9.41455 4.0127C9.25012 4.0127 9.09234 3.94732 8.97607 3.83105C8.85988 3.7148 8.79443 3.55695 8.79443 3.39258V2.875C8.79443 2.34375 8.79321 2.00729 8.76025 1.76172C8.72926 1.53407 8.68196 1.47836 8.65674 1.45312C8.63151 1.4279 8.57533 1.38063 8.34717 1.34961V1.34863C8.10223 1.31577 7.7656 1.31543 7.23486 1.31543H5.67432V10.5049C5.6743 10.6693 5.60893 10.8271 5.49268 10.9434C5.37643 11.0595 5.21851 11.125 5.0542 11.125C4.89007 11.1249 4.73283 11.0593 4.6167 10.9434C4.50044 10.8271 4.43507 10.6693 4.43506 10.5049V1.31543H2.87451C2.34327 1.31543 2.0068 1.31665 1.76123 1.34961C1.53345 1.38063 1.47785 1.42791 1.45264 1.45312C1.42743 1.47834 1.38014 1.53394 1.34912 1.76172C1.31617 2.00673 1.31494 2.34374 1.31494 2.875V3.39258C1.31494 3.55692 1.24946 3.7148 1.1333 3.83105C1.01703 3.94732 0.859251 4.0127 0.694824 4.0127C0.530415 4.01268 0.372603 3.94731 0.256348 3.83105C0.140217 3.71481 0.074707 3.5569 0.074707 3.39258V2.83887C0.074707 2.35801 0.0751238 1.93616 0.120605 1.59668C0.169671 1.23148 0.281457 0.869851 0.575684 0.576172C0.869876 0.281979 1.23091 0.170169 1.59619 0.121094C1.93567 0.075612 2.35752 0.0751952 2.83838 0.0751953H7.27002Z" fill="#BFBFBF" stroke="#BFBFBF" stroke-width="0.15"/>
<path d="M2.33008 10.5049H7.77979" stroke="#BFBFBF" stroke-width="1.5" stroke-linecap="round" stroke-linejoin="round"/>
</svg>
