<svg width="14" height="14" viewBox="0 0 14 14" fill="none" xmlns="http://www.w3.org/2000/svg">
<path d="M5.73333 7.86667L4.3 6.43333C4.17778 6.31111 4.02222 6.25 3.83333 6.25C3.64445 6.25 3.48889 6.31111 3.36667 6.43333C3.24445 6.55555 3.18333 6.71111 3.18333 6.9C3.18333 7.08889 3.24445 7.24444 3.36667 7.36667L5.26667 9.26667C5.4 9.4 5.55556 9.46667 5.73333 9.46667C5.91111 9.46667 6.06667 9.4 6.2 9.26667L9.96667 5.5C10.0889 5.37778 10.15 5.22222 10.15 5.03333C10.15 4.84444 10.0889 4.68889 9.96667 4.56667C9.84445 4.44444 9.68889 4.38333 9.5 4.38333C9.31111 4.38333 9.15556 4.44444 9.03333 4.56667L5.73333 7.86667ZM6.66667 13.3333C5.74445 13.3333 4.87778 13.1582 4.06667 12.808C3.25556 12.4578 2.55 11.9829 1.95 11.3833C1.35 10.7838 0.875112 10.0782 0.525334 9.26667C0.175556 8.45511 0.000445288 7.58844 8.43882e-07 6.66667C-0.000443601 5.74489 0.174668 4.87822 0.525334 4.06667C0.876001 3.25511 1.35089 2.54956 1.95 1.95C2.54911 1.35044 3.25467 0.875556 4.06667 0.525333C4.87867 0.175111 5.74533 0 6.66667 0C7.588 0 8.45467 0.175111 9.26667 0.525333C10.0787 0.875556 10.7842 1.35044 11.3833 1.95C11.9824 2.54956 12.4576 3.25511 12.8087 4.06667C13.1598 4.87822 13.3347 5.74489 13.3333 6.66667C13.332 7.58844 13.1569 8.45511 12.808 9.26667C12.4591 10.0782 11.9842 10.7838 11.3833 11.3833C10.7824 11.9829 10.0769 12.458 9.26667 12.8087C8.45645 13.1593 7.58978 13.3342 6.66667 13.3333ZM6.66667 12C8.15556 12 9.41667 11.4833 10.45 10.45C11.4833 9.41667 12 8.15556 12 6.66667C12 5.17778 11.4833 3.91667 10.45 2.88333C9.41667 1.85 8.15556 1.33333 6.66667 1.33333C5.17778 1.33333 3.91667 1.85 2.88333 2.88333C1.85 3.91667 1.33333 5.17778 1.33333 6.66667C1.33333 8.15556 1.85 9.41667 2.88333 10.45C3.91667 11.4833 5.17778 12 6.66667 12Z" fill="#BFBFBF"/>
</svg>
