<svg width="19" height="18" viewBox="0 0 19 18" fill="none" xmlns="http://www.w3.org/2000/svg">
<path d="M8.48229 6.21348L11.8929 7.11262M7.75922 8.92545L9.46384 9.37538M9.22997 14.3906L7.85663 14.0322C5.92768 13.5236 4.96321 13.2689 4.523 12.5153C4.08207 11.761 4.33819 10.8022 4.85043 8.88399L5.57349 6.1713C6.08573 4.25377 6.34185 3.29429 7.10044 2.85693C7.85832 2.41885 8.82279 2.67281 10.7517 3.18217L11.4333 3.36257C13.363 3.87121 14.3267 4.12517 14.7669 4.87948C15.2071 5.63378 14.9517 6.59254 14.4395 8.51079L13.5818 11.7977" stroke="#BFBFBF" stroke-width="1.5" stroke-linecap="round"/>
<path d="M10.0664 3.00786L11.4412 3.36056C13.3723 3.86126 14.3378 4.11196 14.7811 4.86373C15.2251 5.61621 14.9729 6.57602 14.4686 8.49636L13.7567 11.212C13.2524 13.1316 13.0002 14.0922 12.2434 14.5326C11.4874 14.9738 10.5218 14.7238 8.59082 14.2224L7.90852 14.0448C5.97678 13.5442 5.01198 13.2942 4.56867 12.5417C4.12536 11.7892 4.37681 10.8294 4.88115 8.90904L5.7253 5.61858" stroke="#BFBFBF" stroke-width="1.5" stroke-linecap="round"/>
<path d="M7.79912 16.2052L7.11747 16.3835C5.18853 16.8861 4.22477 17.1378 3.47137 16.6848C2.7194 16.2326 2.47148 15.2525 1.97778 13.2929L1.27863 10.5208C0.784221 8.56123 0.537019 7.5811 0.98294 6.8162C1.36849 6.15419 2.19495 6.18736 3.26583 6.19889" stroke="#BFBFBF" stroke-width="1.5" stroke-linecap="round"/>
</svg>
